<svg width="24" height="24" viewBox="0 0 24 24" fill="none" xmlns="http://www.w3.org/2000/svg">
<path fill-rule="evenodd" clip-rule="evenodd" d="M13.1596 7.14744L17.9946 5.00628L17.9949 5.00686C17.9959 5.00871 17.997 5.01122 17.9979 5.01482C17.9988 5.01829 18 5.02454 18 5.03442V8.11002V12.26V15.3331C18 15.343 17.9988 15.3493 17.9979 15.3527C17.9974 15.3547 17.9969 15.3564 17.9963 15.3578C17.9959 15.3589 17.9954 15.3599 17.9949 15.3607L17.9946 15.3613L13.1596 13.2201C12.5348 12.9435 11.8609 12.8003 11.179 12.8003H9.58711C8.66337 12.8003 7.95916 13.6272 8.10625 14.5391L8.70654 18.2608C8.77495 18.6849 8.45837 19 8.13731 19C7.90974 19 7.67908 18.8479 7.59206 18.5781L6.06348 13.8398C5.86361 13.2202 5.28693 12.8003 4.63592 12.8003H4C3.47833 12.8003 3 12.3539 3 11.7337V8.63384C3 8.01367 3.47833 7.56727 4 7.56727H11.179C11.8609 7.56727 12.5348 7.42409 13.1596 7.14744ZM20 5.03442C20 3.62155 18.5691 2.56455 17.2012 3.17032L12.3497 5.31872C11.9787 5.48305 11.5805 5.56727 11.179 5.56727H4C2.31253 5.56727 1 6.97134 1 8.63384V11.7337C1 13.3962 2.31253 14.8003 4 14.8003H4.27185L5.68865 19.1922C6.03118 20.254 7.0065 21 8.13731 21C9.76639 21 10.9332 19.5058 10.681 17.9423L10.1742 14.8003H11.179C11.5805 14.8003 11.9787 14.8845 12.3497 15.0488L17.2012 17.1972C18.5691 17.803 20 16.746 20 15.3331V12.9808L22.3162 12.2087C22.7246 12.0726 23 11.6905 23 11.26V9.11002C23 8.67959 22.7246 8.29745 22.3162 8.16134L20 7.38926V5.03442ZM21 10.5393L20 10.8726V9.49745L21 9.83078V10.5393ZM6 11C6.55228 11 7 10.5523 7 10C7 9.44774 6.55228 9.00002 6 9.00002C5.44772 9.00002 5 9.44774 5 10C5 10.5523 5.44772 11 6 11Z" fill="#171717"/>
</svg>
