<svg width="24" height="24" viewBox="0 0 24 24" fill="none" xmlns="http://www.w3.org/2000/svg">
<path fillRule="evenodd" clipRule="evenodd" d="M2 7C2 5.34315 3.34315 4 5 4H19C20.6569 4 22 5.34315 22 7V17C22 18.6569 20.6569 20 19 20H5C3.34315 20 2 18.6569 2 17V7ZM5 6C4.44772 6 4 6.44772 4 7V9H20V7C20 6.44772 19.5523 6 19 6H5ZM20 11H4V17C4 17.5523 4.44772 18 5 18H19C19.5523 18 20 17.5523 20 17V11ZM5 15C5 14.4477 5.44772 14 6 14H11C11.5523 14 12 14.4477 12 15C12 15.5523 11.5523 16 11 16H6C5.44772 16 5 15.5523 5 15ZM13 15C13 14.4477 13.4477 14 14 14H15C15.5523 14 16 14.4477 16 15C16 15.5523 15.5523 16 15 16H14C13.4477 16 13 15.5523 13 15Z" fill="#171717"/>
</svg>
