<svg width="24" height="24" viewBox="0 0 24 24" fill="none" xmlns="http://www.w3.org/2000/svg">
<path fillRule="evenodd" clipRule="evenodd" d="M19.1506 4.84928C18.0182 3.7169 16.1823 3.71691 15.0499 4.84929L14.9141 4.98508L19.0148 9.08579L19.1506 8.95C20.283 7.81761 20.283 5.98166 19.1506 4.84928ZM17.6006 10.5L13.4999 6.39929L5.77852 14.1207L9.87923 18.2214L17.6006 10.5ZM8.15514 19.3257L4.67419 15.8447L4.0017 19.8797C3.99008 19.9494 4.05051 20.0098 4.12021 19.9982L8.15514 19.3257ZM13.6357 3.43507C15.5491 1.52165 18.6514 1.52164 20.5648 3.43507C22.4782 5.3485 22.4782 8.45078 20.5648 10.3642L10.5863 20.3427C10.1138 20.8152 9.50554 21.1282 8.84643 21.2381L4.44901 21.971C3.02567 22.2082 1.79169 20.9742 2.02891 19.5509L2.76181 15.1535C2.87166 14.4943 3.18471 13.886 3.6572 13.4135L13.6357 3.43507Z" fill="#171717"/>
</svg>
