<svg width="24" height="24" viewBox="0 0 24 24" fill="none" xmlns="http://www.w3.org/2000/svg">
<g clip-path="url(#clip0_67_1395)">
<path d="M12.001 2.40002C6.22849 2.40002 1.55078 6.0973 1.55078 10.6607C1.55078 13.6295 3.53283 16.2341 6.50801 17.6889C6.2899 18.5041 5.71604 20.645 5.60169 21.1024C5.45981 21.6699 5.80921 21.6636 6.03791 21.5111C6.2179 21.3904 8.90086 19.565 10.0592 18.7794C10.6881 18.8726 11.3361 18.9213 11.9989 18.9213C17.7692 18.9213 22.4491 15.224 22.4491 10.6607C22.4491 6.0973 17.7714 2.40002 12.001 2.40002Z" fill="#371D1E"/>
<path d="M4.71012 9.14049H5.78584C5.78584 9.14049 5.79219 12.0945 5.78584 12.7827C5.78584 13.2846 6.90392 13.2909 6.90392 12.7891L6.90815 9.17861C6.90815 9.17861 7.26814 9.18072 7.97753 9.18072C8.64668 9.18072 8.64668 8.12829 7.97753 8.12829C7.22367 8.12829 4.70588 8.10712 4.70588 8.10712C4.07485 8.10712 4.07696 9.13837 4.70588 9.13837" fill="#FAE100"/>
<mask id="mask0_67_1395" style="mask-type:luminance" maskUnits="userSpaceOnUse" x="4" y="8" width="5" height="6">
<path d="M4.71012 9.14049H5.78584C5.78584 9.14049 5.79219 12.0945 5.78584 12.7827C5.78584 13.2846 6.90392 13.2909 6.90392 12.7891L6.90815 9.17861C6.90815 9.17861 7.26814 9.18072 7.97753 9.18072C8.64668 9.18072 8.64668 8.12829 7.97753 8.12829C7.22367 8.12829 4.70588 8.10712 4.70588 8.10712C4.07485 8.10712 4.07696 9.13837 4.70588 9.13837" fill="white"/>
</mask>
<g mask="url(#mask0_67_1395)">
<path d="M8.64898 8.10925H4.07715V13.2931H8.64898V8.10925Z" fill="#FAE100"/>
</g>
<path d="M9.85794 9.33109L10.4572 11.2073H9.20996L9.85794 9.33109ZM9.18667 8.4523C8.92197 9.03463 7.96695 11.7875 7.64931 12.518C7.42061 13.0453 8.40952 13.4752 8.63822 12.9479L8.85421 12.1962H10.8214C10.8214 12.1962 10.7537 12.2279 11.0141 12.9161C11.2259 13.4752 12.2487 13.0877 12.0348 12.5286C11.732 11.7303 10.688 8.85888 10.4974 8.4523C10.4106 8.26384 10.0951 8.13043 9.79017 8.13043C9.53818 8.13043 9.29043 8.22361 9.18667 8.4523Z" fill="#FAE100"/>
<mask id="mask1_67_1395" style="mask-type:luminance" maskUnits="userSpaceOnUse" x="7" y="8" width="6" height="6">
<path d="M9.85794 9.33109L10.4572 11.2073H9.20996L9.85794 9.33109ZM9.18667 8.4523C8.92197 9.03463 7.96695 11.7875 7.64931 12.518C7.42061 13.0453 8.40952 13.4752 8.63822 12.9479L8.85421 12.1962H10.8214C10.8214 12.1962 10.7537 12.2279 11.0141 12.9161C11.2259 13.4752 12.2487 13.0877 12.0348 12.5286C11.732 11.7303 10.688 8.85888 10.4974 8.4523C10.4106 8.26384 10.0951 8.13043 9.79017 8.13043C9.53818 8.13043 9.29043 8.22361 9.18667 8.4523Z" fill="white"/>
</mask>
<g mask="url(#mask1_67_1395)">
<path d="M12.2506 8.13043H7.42041V13.4773H12.2506V8.13043Z" fill="#FAE100"/>
</g>
<path d="M12.4141 8.62594C12.4141 9.56191 12.4204 12.5773 12.4204 12.5773C12.4204 12.5773 12.3336 13.1766 12.8482 13.1766C13.3627 13.1766 14.502 13.1702 15.0081 13.1702C15.5142 13.1702 15.5099 12.0945 15.006 12.0945C14.502 12.0945 13.5787 12.0882 13.5787 12.0882C13.5787 12.0882 13.583 9.29933 13.5808 8.62171C13.5808 8.29348 13.2886 8.13043 12.9985 8.13043C12.7084 8.13043 12.4162 8.2956 12.4162 8.62383" fill="#FAE100"/>
<mask id="mask2_67_1395" style="mask-type:luminance" maskUnits="userSpaceOnUse" x="12" y="8" width="4" height="6">
<path d="M12.4141 8.62594C12.4141 9.56191 12.4204 12.5773 12.4204 12.5773C12.4204 12.5773 12.3336 13.1766 12.8482 13.1766C13.3627 13.1766 14.502 13.1702 15.0081 13.1702C15.5142 13.1702 15.5099 12.0945 15.006 12.0945C14.502 12.0945 13.5787 12.0882 13.5787 12.0882C13.5787 12.0882 13.583 9.29933 13.5808 8.62171C13.5808 8.29348 13.2886 8.13043 12.9985 8.13043C12.7084 8.13043 12.4162 8.2956 12.4162 8.62383" fill="white"/>
</mask>
<g mask="url(#mask2_67_1395)">
<path d="M15.512 8.13043H12.3335V13.1745H15.512V8.13043Z" fill="#FAE100"/>
</g>
<path d="M15.6475 8.47555C15.6581 8.88636 15.6348 12.5942 15.6348 12.8695C15.6348 13.3036 16.7401 13.3015 16.738 12.8695C16.738 12.3655 16.738 11.4105 16.738 11.4105L17.062 11.15L18.4808 13.0855C18.7666 13.4645 19.6687 12.7806 19.3829 12.4015L17.8773 10.4174C17.8773 10.4174 18.9001 9.31199 19.3024 8.91177C19.5374 8.67884 18.809 7.94404 18.574 8.17909C18.3453 8.40567 16.7444 10.0087 16.7444 10.0087C16.7444 10.0087 16.7592 9.00283 16.7444 8.44591C16.738 8.23415 16.4797 8.13251 16.215 8.13251C15.9312 8.13251 15.6411 8.24897 15.6475 8.47555Z" fill="#FAE100"/>
<mask id="mask3_67_1395" style="mask-type:luminance" maskUnits="userSpaceOnUse" x="15" y="8" width="5" height="6">
<path d="M15.6475 8.47555C15.6581 8.88636 15.6348 12.5942 15.6348 12.8695C15.6348 13.3036 16.7401 13.3015 16.738 12.8695C16.738 12.3655 16.738 11.4105 16.738 11.4105L17.062 11.15L18.4808 13.0855C18.7666 13.4645 19.6687 12.7806 19.3829 12.4015L17.8773 10.4174C17.8773 10.4174 18.9001 9.31199 19.3024 8.91177C19.5374 8.67884 18.809 7.94404 18.574 8.17909C18.3453 8.40567 16.7444 10.0087 16.7444 10.0087C16.7444 10.0087 16.7592 9.00283 16.7444 8.44591C16.738 8.23415 16.4797 8.13251 16.215 8.13251C15.9312 8.13251 15.6411 8.24897 15.6475 8.47555Z" fill="white"/>
</mask>
<g mask="url(#mask3_67_1395)">
<path d="M19.6709 7.94617H15.6348V13.4624H19.6709V7.94617Z" fill="#FAE100"/>
</g>
</g>
<defs>
<clipPath id="clip0_67_1395">
<rect width="20.8983" height="19.2" fill="white" transform="translate(1.55078 2.40002)"/>
</clipPath>
</defs>
</svg>
