<svg width="24" height="24" viewBox="0 0 24 24" fill="none" xmlns="http://www.w3.org/2000/svg">
<path fillRule="evenodd" clipRule="evenodd" d="M2.24781 9.77871C3.25835 5.32525 7.23965 2 12 2C14.7611 2 17.2625 3.12038 19.0711 4.92893L21 6.85786V4C21 3.44772 21.4477 3 22 3C22.5523 3 23 3.44772 23 4V9.27208C23 9.82436 22.5523 10.2721 22 10.2721H17C16.4477 10.2721 16 9.82436 16 9.27208C16 8.71979 16.4477 8.27208 17 8.27208H19.5858L17.6569 6.34315C16.208 4.89434 14.2094 4 12 4C8.194 4 5.0066 6.65879 4.19823 10.2213C4.07601 10.7599 3.54032 11.0974 3.00173 10.9752C2.46314 10.853 2.12559 10.3173 2.24781 9.77871ZM20.9983 13.0248C21.5369 13.147 21.8744 13.6827 21.7522 14.2213C20.7416 18.6747 16.7603 22 12 22C9.23885 22 6.73748 20.8796 4.92893 19.0711L3 17.1421V20C3 20.5523 2.55228 21 2 21C1.44772 21 1 20.5523 1 20V14.7279C1 14.1756 1.44772 13.7279 2 13.7279H7C7.55228 13.7279 8 14.1756 8 14.7279C8 15.2802 7.55228 15.7279 7 15.7279H4.41421L6.34315 17.6569C7.79196 19.1057 9.79058 20 12 20C15.806 20 18.9934 17.3412 19.8018 13.7787C19.924 13.2401 20.4597 12.9026 20.9983 13.0248Z" fill="#171717"/>
</svg>
