<svg width="24" height="24" viewBox="0 0 24 24" fill="none" xmlns="http://www.w3.org/2000/svg">
<g clip-path="url(#clip0_67_1427)">
<path d="M17.1236 12.596C17.0978 11.0306 17.774 9.81231 19.1502 8.94047C18.3743 7.81213 17.2298 7.17792 15.7162 7.0362C15.1779 6.98555 14.4898 7.11272 13.6524 7.42093C12.7515 7.75502 12.2444 7.92098 12.1323 7.92098C11.8947 7.92098 11.4383 7.78088 10.7615 7.49799C10.0864 7.21564 9.51088 7.075 9.03563 7.075C8.23491 7.08793 7.49023 7.30939 6.80267 7.73885C6.11457 8.16885 5.56441 8.75565 5.1522 9.49871C4.62521 10.4217 4.36279 11.5248 4.36279 12.8072C4.36279 13.9614 4.55624 15.1151 4.9442 16.2703C5.30684 17.3733 5.77025 18.3416 6.3328 19.1741C6.83284 19.9312 7.272 20.4825 7.64649 20.8295C8.1848 21.3678 8.73495 21.6248 9.29858 21.5984C9.66122 21.5855 10.1359 21.4507 10.7244 21.1937C11.2745 20.9512 11.8252 20.8295 12.3759 20.8295C12.8883 20.8295 13.4196 20.9507 13.9709 21.1937C14.5835 21.4507 15.0841 21.579 15.4721 21.579C16.0476 21.5537 16.5853 21.3036 17.0865 20.83C17.261 20.6754 17.4518 20.4641 17.6582 20.1947C17.8645 19.9248 18.093 19.6041 18.3436 19.2329C18.5182 18.964 18.6901 18.6752 18.8598 18.367C19.029 18.0593 19.182 17.7327 19.3194 17.3857C19.3814 17.2446 19.4374 17.1007 19.4881 16.953C19.5376 16.8059 19.5878 16.6556 19.6379 16.5015C19.175 16.2967 18.7558 16.0068 18.3808 15.635C17.5563 14.8155 17.1371 13.8019 17.1242 12.5965L17.1236 12.596Z" fill="#171717"/>
<path d="M14.7589 5.47843C15.4222 4.64484 15.7541 3.74713 15.7541 2.78476V2.59293C15.7541 2.52827 15.7477 2.46469 15.7353 2.40002C15.2724 2.42589 14.7815 2.57353 14.2621 2.84241C13.7432 3.11237 13.3148 3.45238 12.9764 3.86244C12.3012 4.6707 11.9634 5.53608 11.9634 6.45966V6.64178C11.9634 6.69998 11.9698 6.76087 11.9822 6.82553C13.0211 6.92791 13.9469 6.47905 14.7594 5.47896L14.7589 5.47843Z" fill="#171717"/>
</g>
<defs>
<clipPath id="clip0_67_1427">
<rect width="15.274" height="19.2" fill="white" transform="translate(4.36279 2.40002)"/>
</clipPath>
</defs>
</svg>
