<svg width="24" height="24" viewBox="0 0 24 24" fill="none" xmlns="http://www.w3.org/2000/svg">
<path fillRule="evenodd" clipRule="evenodd" d="M1 12C1 5.92487 5.92487 1 12 1C18.0751 1 23 5.92487 23 12C23 18.0751 18.0751 23 12 23C5.92487 23 1 18.0751 1 12ZM12 3C7.02944 3 3 7.02944 3 12C3 16.9706 7.02944 21 12 21C16.9706 21 21 16.9706 21 12C21 7.02944 16.9706 3 12 3ZM17.2071 8.79289C17.5976 9.18342 17.5976 9.81658 17.2071 10.2071L11.2071 16.2071C10.8166 16.5976 10.1834 16.5976 9.79289 16.2071L6.79289 13.2071C6.40237 12.8166 6.40237 12.1834 6.79289 11.7929C7.18342 11.4024 7.81658 11.4024 8.20711 11.7929L10.5 14.0858L15.7929 8.79289C16.1834 8.40237 16.8166 8.40237 17.2071 8.79289Z" fill="#171717"/>
</svg>
