<svg width="24" height="24" viewBox="0 0 24 24" fill="none" xmlns="http://www.w3.org/2000/svg">
<path fillRule="evenodd" clipRule="evenodd" d="M12 5C12.5523 5 13 5.44772 13 6V11.5858L13.7929 10.7929C14.1834 10.4024 14.8166 10.4024 15.2071 10.7929C15.5976 11.1834 15.5976 11.8166 15.2071 12.2071L12.7071 14.7071C12.3166 15.0976 11.6834 15.0976 11.2929 14.7071L8.79289 12.2071C8.40237 11.8166 8.40237 11.1834 8.79289 10.7929C9.18342 10.4024 9.81658 10.4024 10.2071 10.7929L11 11.5858V6C11 5.44772 11.4477 5 12 5ZM3 18C3 17.4477 3.44772 17 4 17H20C20.5523 17 21 17.4477 21 18C21 18.5523 20.5523 19 20 19H4C3.44772 19 3 18.5523 3 18Z" fill="#171717"/>
</svg>
