<svg width="24" height="24" viewBox="0 0 24 24" fill="none" xmlns="http://www.w3.org/2000/svg">
<path fillRule="evenodd" clipRule="evenodd" d="M12.7299 4.27902C12.3337 3.90699 11.6667 3.90699 11.2705 4.27902L5.56348 9.63726C5.19501 9.98356 5.00021 10.4397 5.00021 10.9V18.1833C5.00021 19.1282 5.8353 20 7.00021 20H17.0002C18.1651 20 19.0002 19.1282 19.0002 18.1833V10.9C19.0002 10.4396 18.8061 9.98433 18.4379 9.63816L18.437 9.63737L12.7299 4.27902ZM14.0989 2.82096C12.933 1.72635 11.0674 1.72635 9.90152 2.82096L4.19441 8.1793L2.31596 9.94323C1.91335 10.3213 1.89345 10.9541 2.27151 11.3567C2.46821 11.5662 2.73388 11.6721 3.00021 11.6722V18.1833C3.00021 20.3497 4.85141 22 7.00021 22H17.0002C19.149 22 21.0002 20.3497 21.0002 18.1833V11.6722C21.2667 11.6722 21.5325 11.5663 21.7292 11.3567C22.1073 10.9541 22.0873 10.3212 21.6847 9.94318L14.0989 2.82096ZM8.00019 17C8.00019 16.4477 8.4479 16 9.00019 16H15.0002C15.5525 16 16.0002 16.4477 16.0002 17C16.0002 17.5523 15.5525 18 15.0002 18H9.00019C8.4479 18 8.00019 17.5523 8.00019 17Z" fill="#171717"/>
</svg>
