<svg width="24" height="24" viewBox="0 0 24 24" fill="none" xmlns="http://www.w3.org/2000/svg">
<path fillRule="evenodd" clipRule="evenodd" d="M9 2.8873C9 1.84497 9.84497 1 10.8873 1H13.1127C14.155 1 15 1.84498 15 2.8873C15 3.57741 15.8344 3.92301 16.3223 3.43504C17.0594 2.698 18.2543 2.698 18.9914 3.43503L18.2843 4.14214L18.9914 3.43504L20.565 5.00863C21.302 5.74566 21.302 6.94064 20.565 7.67768C20.077 8.16564 20.4226 9 21.1127 9C22.155 9 23 9.84497 23 10.8873V13.1127C23 14.155 22.155 15 21.1127 15C20.4226 15 20.077 15.8344 20.565 16.3223C21.302 17.0594 21.302 18.2543 20.565 18.9914L18.9914 20.565C18.2543 21.302 17.0594 21.302 16.3223 20.565C15.8344 20.077 15 20.4226 15 21.1127C15 22.155 14.155 23 13.1127 23H10.8873C9.84497 23 9 22.155 9 21.1127C9 20.4226 8.16565 20.077 7.67767 20.565L6.97057 19.8579L7.67767 20.565C6.94063 21.302 5.74566 21.302 5.00863 20.565L3.43503 18.9914C2.698 18.2544 2.69799 17.0594 3.43503 16.3223C3.92301 15.8344 3.5774 15 2.8873 15C1.84497 15 1 14.155 1 13.1127V10.8873C1 9.84497 1.84497 9 2.8873 9C3.5774 9 3.923 8.16564 3.43503 7.67767C2.69799 6.94063 2.69799 5.74566 3.43503 5.00862L5.00862 3.43503C5.74566 2.69799 6.94063 2.69799 7.67767 3.43503C8.16564 3.923 9 3.5774 9 2.8873ZM10.9979 3C10.9101 5.35915 8.07486 6.53356 6.34462 4.92746L4.92746 6.34462C6.53356 8.07486 5.35915 10.9101 3 10.9979V13.0021C5.35916 13.0899 6.53357 15.9251 4.92746 17.6554L6.34463 19.0726C8.07486 17.4664 10.9101 18.6408 10.9979 21H13.0021C13.0899 18.6408 15.9251 17.4664 17.6554 19.0725L19.0725 17.6554C17.4664 15.9251 18.6408 13.0899 21 13.0021V10.9979C18.6409 10.9101 17.4664 8.07487 19.0725 6.34463L17.6554 4.92746C15.9251 6.53357 13.0899 5.35915 13.0021 3H10.9979ZM12 10C10.8954 10 10 10.8954 10 12C10 13.1046 10.8954 14 12 14C13.1046 14 14 13.1046 14 12C14 10.8954 13.1046 10 12 10ZM8 12C8 9.79086 9.79086 8 12 8C14.2091 8 16 9.79086 16 12C16 14.2091 14.2091 16 12 16C9.79086 16 8 14.2091 8 12Z" fill="#171717"/>
</svg>
