<svg width="24" height="24" viewBox="0 0 24 24" fill="none" xmlns="http://www.w3.org/2000/svg">
<path fill-rule="evenodd" clip-rule="evenodd" d="M9 5C7.89543 5 7 5.89543 7 7V17C7 18.1046 7.89543 19 9 19H12C12.5523 19 13 19.4477 13 20C13 20.5523 12.5523 21 12 21H9C6.79086 21 5 19.2091 5 17V7C5 4.79086 6.79086 3 9 3H12C12.5523 3 13 3.44772 13 4C13 4.55228 12.5523 5 12 5H9ZM14.7929 8.79289C15.1834 8.40237 15.8166 8.40237 16.2071 8.79289L18.7071 11.2929C19.0976 11.6834 19.0976 12.3166 18.7071 12.7071L16.2071 15.2071C15.8166 15.5976 15.1834 15.5976 14.7929 15.2071C14.4024 14.8166 14.4024 14.1834 14.7929 13.7929L15.5858 13H10C9.44772 13 9 12.5523 9 12C9 11.4477 9.44772 11 10 11H15.5858L14.7929 10.2071C14.4024 9.81658 14.4024 9.18342 14.7929 8.79289Z" fill="#171717"/>
</svg>
