<svg width="24" height="24" viewBox="0 0 24 24" fill="none" xmlns="http://www.w3.org/2000/svg">
<path fillRule="evenodd" clipRule="evenodd" d="M12.1127 4.82133C14.3737 2.39349 18.0712 2.3925 20.3326 4.82071C22.5558 7.20806 22.5558 11.0519 20.3326 13.4392L14.179 20.0469C12.9956 21.3177 11.0044 21.3177 9.82099 20.0469L3.66745 13.4392C1.44418 11.0519 1.44418 7.20869 3.66745 4.82133C5.92859 2.39331 9.62614 2.39331 11.8873 4.82133C11.9315 4.86884 11.9722 4.87848 12 4.87848C12.0278 4.87848 12.0685 4.86884 12.1127 4.82133ZM18.8689 6.18373C17.3989 4.60519 15.0467 4.60545 13.5763 6.18435C12.7145 7.10985 11.2856 7.10985 10.4237 6.18435C8.95345 4.60563 6.60128 4.60563 5.13107 6.18435C3.62298 7.80375 3.62298 10.4568 5.13107 12.0762L11.2846 18.6839C11.6771 19.1054 12.3229 19.1054 12.7154 18.6839L18.8689 12.0762C20.377 10.4568 20.377 7.80312 18.8689 6.18373Z" fill="#171717"/>
</svg>
