<svg width="24" height="24" viewBox="0 0 24 24" fill="none" xmlns="http://www.w3.org/2000/svg">
<path fillRule="evenodd" clipRule="evenodd" d="M7.40501 2.00304C8.80454 1.35879 10.3617 1 12 1C13.8506 1 15.5973 1.45782 17.13 2.26722C19.5006 3.51909 21.3585 5.61138 22.3071 8.14996C22.7554 9.34957 23 10.6474 23 12C23 15.415 21.4426 18.4671 19.0031 20.4831C17.1011 22.0549 14.6596 23 12 23C8.4006 23 5.20556 21.2698 3.20046 18.6006C1.81941 16.7621 1 14.4755 1 12C1 7.56345 3.62645 3.74242 7.40501 2.00304ZM9.38147 3.38658L10.0682 4.36088C10.7646 5.349 10.745 6.67331 10.0197 7.64041L9.79948 7.93402C9.65236 8.13019 9.59575 8.37974 9.64384 8.62019C9.93623 10.0821 9.05728 11.5237 7.62375 11.9332L7.34946 12.0116C6.84665 12.1553 6.5 12.6148 6.5 13.1378V13.8197C6.5 14.7511 6.28313 15.6698 5.86656 16.5029L5.18128 17.8735C6.59857 19.5175 8.59767 20.6422 10.8583 20.9283L10.6502 19.2637C10.522 18.2384 10.8744 17.2114 11.6051 16.4807C12.233 15.8528 13.0847 15.5 13.9727 15.5H14.3512C15.7058 15.5 16.9797 16.1438 17.783 17.2345L18.5071 18.2176C20.0525 16.6009 21 14.4114 21 12C21 11.5581 20.9682 11.1239 20.9069 10.6996L20.8007 10.834C19.9868 11.8641 18.8004 12.5327 17.4977 12.6956L17.1567 12.7382C15.4805 12.9477 14 11.6407 14 9.95151C14 9.1085 14.2869 8.29058 14.8135 7.6323L14.9443 7.46887L15.7251 8.09356L14.9443 7.46887C15.598 6.65169 15.9055 5.61085 15.8007 4.56961L15.7236 3.80375C14.5898 3.28773 13.3297 3 12 3C11.0882 3 10.2093 3.13529 9.38147 3.38658ZM17.8186 5.13358C17.7832 6.43255 17.3264 7.69281 16.506 8.71826L16.3753 8.88169L15.5944 8.25699L16.3753 8.88169C16.1323 9.18535 16 9.56264 16 9.95151C16 10.4377 16.4262 10.8139 16.9086 10.7536L17.2497 10.711C18.0313 10.6133 18.7431 10.2121 19.2315 9.59406L20.224 8.33791C19.6702 7.09629 18.8429 6.00249 17.8186 5.13358ZM16.9708 19.5041L16.1727 18.4206C15.7463 17.8417 15.0702 17.5 14.3512 17.5H13.9727C13.6151 17.5 13.2721 17.6421 13.0193 17.8949C12.725 18.1892 12.5831 18.6028 12.6347 19.0157L12.8775 20.9578C14.3813 20.8125 15.7759 20.2974 16.9708 19.5041ZM3.90905 15.9458L4.07771 15.6085C4.35542 15.0531 4.5 14.4406 4.5 13.8197V13.1378C4.5 11.7219 5.43861 10.4775 6.80002 10.0885L7.07431 10.0102C7.50603 9.88683 7.77074 9.4527 7.68268 9.01242C7.523 8.21402 7.71095 7.3854 8.19948 6.73402L8.41969 6.44041C8.62479 6.16695 8.63032 5.79248 8.4334 5.51307L7.50755 4.19945C4.81178 5.75544 3 8.66702 3 12C3 13.4163 3.32677 14.7547 3.90905 15.9458Z" fill="#171717"/>
</svg>
