<svg width="24" height="24" viewBox="0 0 24 24" fill="none" xmlns="http://www.w3.org/2000/svg">
<path fill-rule="evenodd" clip-rule="evenodd" d="M1.29289 6.29289C1.68342 5.90237 2.31658 5.90237 2.70711 6.29289L7.54773 11.1335C7.88479 11.4706 8.41291 11.5229 8.80954 11.2585L12.0811 9.07744C13.2709 8.2842 14.8553 8.44108 15.8665 9.45227L21 14.5858V11C21 10.4477 21.4477 10 22 10C22.5523 10 23 10.4477 23 11V17C23 17.5523 22.5523 18 22 18H16C15.4477 18 15 17.5523 15 17C15 16.4477 15.4477 16 16 16H19.5858L14.4523 10.8665C14.1152 10.5294 13.5871 10.4771 13.1905 10.7415L9.91894 12.9226C8.72907 13.7158 7.14471 13.5589 6.13352 12.5477L1.29289 7.70711C0.902369 7.31658 0.902369 6.68342 1.29289 6.29289Z" fill="#171717"/>
</svg>
