<svg width="24" height="24" viewBox="0 0 24 24" fill="none" xmlns="http://www.w3.org/2000/svg">
<path fill-rule="evenodd" clip-rule="evenodd" d="M1 12C1 5.92487 5.92487 1 12 1C13.148 1 14.2568 1.1762 15.2996 1.50375C15.8266 1.66924 16.1195 2.23055 15.954 2.75745C15.7886 3.28436 15.2273 3.57734 14.7004 3.41185C13.8492 3.14451 12.9424 3 12 3C7.02944 3 3 7.02944 3 12C3 16.9706 7.02944 21 12 21C16.9706 21 21 16.9706 21 12C21 11.0576 20.8555 10.1508 20.5881 9.29965C20.4227 8.77274 20.7156 8.21144 21.2425 8.04595C21.7695 7.88046 22.3308 8.17344 22.4962 8.70035C22.8238 9.74323 23 10.852 23 12C23 18.0751 18.0751 23 12 23C5.92487 23 1 18.0751 1 12ZM19.3827 2.57612C19.7564 2.7309 20 3.09554 20 3.5V4H20.5C20.9045 4 21.2691 4.24364 21.4239 4.61732C21.5787 4.99099 21.4931 5.42111 21.2071 5.70711L18.2071 8.70711C18.0196 8.89464 17.7652 9 17.5 9H16.4142L12.7071 12.7071C12.3166 13.0976 11.6834 13.0976 11.2929 12.7071C10.9024 12.3166 10.9024 11.6834 11.2929 11.2929L15 7.58579V6.5C15 6.23478 15.1054 5.98043 15.2929 5.79289L18.2929 2.79289C18.5789 2.5069 19.009 2.42134 19.3827 2.57612ZM6 12C6 8.68629 8.68629 6 12 6C12.5523 6 13 6.44772 13 7C13 7.55228 12.5523 8 12 8C9.79086 8 8 9.79086 8 12C8 14.2091 9.79086 16 12 16C14.2091 16 16 14.2091 16 12C16 11.4477 16.4477 11 17 11C17.5523 11 18 11.4477 18 12C18 15.3137 15.3137 18 12 18C8.68629 18 6 15.3137 6 12Z" fill="#171717"/>
</svg>
