<svg width="24" height="24" viewBox="0 0 24 24" fill="none" xmlns="http://www.w3.org/2000/svg">
<path fill-rule="evenodd" clip-rule="evenodd" d="M13.7929 3.29289C14.1834 2.90237 14.8166 2.90237 15.2071 3.29289L18.7071 6.79289C19.0976 7.18342 19.0976 7.81658 18.7071 8.20711L15.2071 11.7071C14.8166 12.0976 14.1834 12.0976 13.7929 11.7071C13.4024 11.3166 13.4024 10.6834 13.7929 10.2929L15.5858 8.5H6C5.44772 8.5 5 8.05228 5 7.5C5 6.94772 5.44772 6.5 6 6.5H15.5858L13.7929 4.70711C13.4024 4.31658 13.4024 3.68342 13.7929 3.29289ZM10.2071 12.2929C10.5976 12.6834 10.5976 13.3166 10.2071 13.7071L8.41421 15.5H18C18.5523 15.5 19 15.9477 19 16.5C19 17.0523 18.5523 17.5 18 17.5H8.41421L10.2071 19.2929C10.5976 19.6834 10.5976 20.3166 10.2071 20.7071C9.81658 21.0976 9.18342 21.0976 8.79289 20.7071L5.29289 17.2071C4.90237 16.8166 4.90237 16.1834 5.29289 15.7929L8.79289 12.2929C9.18342 11.9024 9.81658 11.9024 10.2071 12.2929Z" fill="#171717"/>
</svg>
