<svg width="24" height="24" viewBox="0 0 24 24" fill="none" xmlns="http://www.w3.org/2000/svg">
<path fill-rule="evenodd" clip-rule="evenodd" d="M6 4C4.89543 4 4 4.89543 4 6V7C4 7.55228 3.55228 8 3 8C2.44772 8 2 7.55228 2 7V6C2 3.79086 3.79086 2 6 2H7C7.55228 2 8 2.44772 8 3C8 3.55228 7.55228 4 7 4H6ZM16 3C16 2.44772 16.4477 2 17 2H18C20.2091 2 22 3.79086 22 6V7C22 7.55228 21.5523 8 21 8C20.4477 8 20 7.55228 20 7V6C20 4.89543 19.1046 4 18 4H17C16.4477 4 16 3.55228 16 3ZM8 7C8.55228 7 9 7.44772 9 8V9C9 9.55228 8.55228 10 8 10C7.44772 10 7 9.55228 7 9V8C7 7.44772 7.44772 7 8 7ZM16 7C16.5523 7 17 7.44772 17 8V9C17 9.55228 16.5523 10 16 10C15.4477 10 15 9.55228 15 9V8C15 7.44772 15.4477 7 16 7ZM12 8C12.5523 8 13 8.44772 13 9V12C13 12.2652 12.8946 12.5196 12.7071 12.7071L12.2071 13.2071C11.8166 13.5976 11.1834 13.5976 10.7929 13.2071C10.4024 12.8166 10.4024 12.1834 10.7929 11.7929L11 11.5858V9C11 8.44772 11.4477 8 12 8ZM7.37531 14.2191C7.80657 13.8741 8.43586 13.944 8.78087 14.3753C10.3805 16.3749 13.6195 16.3749 15.2191 14.3753C15.5641 13.944 16.1934 13.8741 16.6247 14.2191C17.056 14.5641 17.1259 15.1934 16.7809 15.6247C14.3805 18.6251 9.61946 18.6251 7.21913 15.6247C6.87412 15.1934 6.94404 14.5641 7.37531 14.2191ZM3 16C3.55228 16 4 16.4477 4 17V18C4 19.1046 4.89543 20 6 20H7C7.55228 20 8 20.4477 8 21C8 21.5523 7.55228 22 7 22H6C3.79086 22 2 20.2091 2 18V17C2 16.4477 2.44772 16 3 16ZM21 16C21.5523 16 22 16.4477 22 17V18C22 20.2091 20.2091 22 18 22H17C16.4477 22 16 21.5523 16 21C16 20.4477 16.4477 20 17 20H18C19.1046 20 20 19.1046 20 18V17C20 16.4477 20.4477 16 21 16Z" fill="#171717"/>
</svg>
