<svg width="24" height="24" viewBox="0 0 24 24" fill="none" xmlns="http://www.w3.org/2000/svg">
<path fillRule="evenodd" clipRule="evenodd" d="M12 3C11.4477 3 11 3.44772 11 4H13C13 3.44772 12.5523 3 12 3ZM15 4C15 2.34315 13.6569 1 12 1C10.3431 1 9 2.34315 9 4H7C5.34315 4 4 5.34315 4 7V7.5C4 8.32843 4.67157 9 5.5 9H18.5C19.3284 9 20 8.32843 20 7.5V7C20 5.34315 18.6569 4 17 4H15ZM7 6C6.44772 6 6 6.44772 6 7H18C18 6.44772 17.5523 6 17 6H7ZM5.90946 10.0041C6.45948 9.95411 6.94589 10.3594 6.99589 10.9095L7.74786 19.1811C7.84151 20.2112 8.70524 21 9.73964 21H14.2604C15.2948 21 16.1585 20.2112 16.2521 19.1811L17.0041 10.9095C17.0541 10.3594 17.5405 9.95411 18.0905 10.0041C18.6406 10.0541 19.0459 10.5405 18.9959 11.0905L18.2439 19.3621C18.0566 21.4225 16.3292 23 14.2604 23H9.73964C7.67083 23 5.94337 21.4225 5.75607 19.3621L5.00411 11.0905C4.95411 10.5405 5.35945 10.0541 5.90946 10.0041ZM10 10C10.5523 10 11 10.4477 11 11V19C11 19.5523 10.5523 20 10 20C9.44772 20 9 19.5523 9 19V11C9 10.4477 9.44772 10 10 10ZM14 10C14.5523 10 15 10.4477 15 11V19C15 19.5523 14.5523 20 14 20C13.4477 20 13 19.5523 13 19V11C13 10.4477 13.4477 10 14 10Z" fill="#171717"/>
</svg>
