<svg width="24" height="24" viewBox="0 0 24 24" fill="none" xmlns="http://www.w3.org/2000/svg">
<path fill-rule="evenodd" clip-rule="evenodd" d="M1 7.5C1 5.01472 3.01472 3 5.5 3C7.98528 3 10 5.01472 10 7.5V16.5C10 18.9853 7.98528 21 5.5 21C3.01472 21 1 18.9853 1 16.5V7.5ZM5.5 5C4.11929 5 3 6.11929 3 7.5V11H8V7.5C8 6.11929 6.88071 5 5.5 5ZM8 13H3V16.5C3 17.8807 4.11929 19 5.5 19C6.88071 19 8 17.8807 8 16.5V13ZM16 8.12602C14.2748 8.57006 13 10.1362 13 12C13 13.8638 14.2748 15.4299 16 15.874V8.12602ZM18 8.12602V15.874C19.7252 15.4299 21 13.8638 21 12C21 10.1362 19.7252 8.57006 18 8.12602ZM11 12C11 8.68629 13.6863 6 17 6C20.3137 6 23 8.68629 23 12C23 15.3137 20.3137 18 17 18C13.6863 18 11 15.3137 11 12Z" fill="#171717"/>
</svg>
