<svg width="24" height="24" viewBox="0 0 24 24" fill="none" xmlns="http://www.w3.org/2000/svg">
<path fill-rule="evenodd" clip-rule="evenodd" d="M9.00018 2C9.00018 1.44772 9.4479 1 10.0002 1H14.0002C14.5525 1 15.0002 1.44772 15.0002 2C15.0002 2.55228 14.5525 3 14.0002 3H10.0002C9.4479 3 9.00018 2.55228 9.00018 2ZM8.60712 4.79484C9.59625 4.23258 10.7609 3.91176 12.0002 3.91176C13.2394 3.91176 14.4041 4.23258 15.3932 4.79484C15.4743 4.84093 15.5542 4.88865 15.6329 4.93795C17.2839 5.97243 18.4178 7.7277 18.4178 9.76471V10.3852C18.4178 11.7171 18.7637 13.0359 19.4349 14.2384L20.7576 16.608C21.1389 17.2911 21.0443 18.0507 20.6601 18.6076C20.2824 19.155 19.6389 19.5 18.9152 19.5H5.08511C4.36143 19.5 3.71797 19.155 3.3403 18.6076C2.9561 18.0507 2.86147 17.2911 3.24279 16.608L4.56542 14.2384C5.23664 13.0359 5.58252 11.7171 5.58252 10.3852V9.76471C5.58252 7.7277 6.71649 5.97243 8.36744 4.93795C8.44613 4.88865 8.52604 4.84093 8.60712 4.79484ZM12.0002 5.91176C11.1069 5.91176 10.2829 6.14282 9.59549 6.53355C9.53918 6.56556 9.4838 6.59863 9.42938 6.63273C8.27995 7.35296 7.58252 8.50812 7.58252 9.76471V10.3852C7.58252 12.0669 7.1451 13.7203 6.31178 15.2132L5.03789 17.4954C5.05071 17.4982 5.06631 17.5 5.08511 17.5H18.9152C18.934 17.5 18.9496 17.4982 18.9625 17.4954L17.6886 15.2132C16.8553 13.7203 16.4178 12.0669 16.4178 10.3852V9.76471C16.4178 8.50812 15.7204 7.35296 14.571 6.63273C14.5166 6.59863 14.4612 6.56556 14.4049 6.53356C13.7175 6.14282 12.8935 5.91176 12.0002 5.91176ZM9.25505 20.5692C9.62337 20.1576 10.2556 20.1226 10.6671 20.4909C11.0216 20.8082 11.4873 21 12.0002 21C12.5131 21 12.9788 20.8082 13.3333 20.4909C13.7448 20.1226 14.377 20.1576 14.7453 20.5692C15.1136 20.9807 15.0786 21.6129 14.6671 21.9812C13.9601 22.614 13.024 23 12.0002 23C10.9763 23 10.0403 22.614 9.33327 21.9812C8.92174 21.6129 8.88672 20.9807 9.25505 20.5692Z" fill="#171717"/>
</svg>
