<svg width="24" height="24" viewBox="0 0 24 24" fill="none" xmlns="http://www.w3.org/2000/svg">
<path fillRule="evenodd" clipRule="evenodd" d="M1 7C1 5.34315 2.34315 4 4 4H20C21.6569 4 23 5.34315 23 7V17C23 18.6569 21.6569 20 20 20H4C2.34315 20 1 18.6569 1 17V7ZM4 6C3.44772 6 3 6.44772 3 7V17C3 17.5523 3.44772 18 4 18H20C20.5523 18 21 17.5523 21 17V7C21 6.44772 20.5523 6 20 6H4ZM5 9C5 8.44772 5.44772 8 6 8H7C7.55228 8 8 8.44772 8 9C8 9.55228 7.55228 10 7 10H6C5.44772 10 5 9.55228 5 9ZM9 9C9 8.44772 9.44772 8 10 8H10.5C11.0523 8 11.5 8.44772 11.5 9C11.5 9.55228 11.0523 10 10.5 10H10C9.44772 10 9 9.55228 9 9ZM12.5 9C12.5 8.44772 12.9477 8 13.5 8H14C14.5523 8 15 8.44772 15 9C15 9.55228 14.5523 10 14 10H13.5C12.9477 10 12.5 9.55228 12.5 9ZM16 9C16 8.44772 16.4477 8 17 8H18C18.5523 8 19 8.44772 19 9C19 9.55228 18.5523 10 18 10H17C16.4477 10 16 9.55228 16 9ZM5 12C5 11.4477 5.44772 11 6 11H7C7.55228 11 8 11.4477 8 12C8 12.5523 7.55228 13 7 13H6C5.44772 13 5 12.5523 5 12ZM8.5 12C8.5 11.4477 8.94772 11 9.5 11H10C10.5523 11 11 11.4477 11 12C11 12.5523 10.5523 13 10 13H9.5C8.94772 13 8.5 12.5523 8.5 12ZM12 12C12 11.4477 12.4477 11 13 11H13.5C14.0523 11 14.5 11.4477 14.5 12C14.5 12.5523 14.0523 13 13.5 13H13C12.4477 13 12 12.5523 12 12ZM15.5 12C15.5 11.4477 15.9477 11 16.5 11H18C18.5523 11 19 11.4477 19 12C19 12.5523 18.5523 13 18 13H16.5C15.9477 13 15.5 12.5523 15.5 12ZM5 15C5 14.4477 5.44772 14 6 14H6.5C7.05228 14 7.5 14.4477 7.5 15C7.5 15.5523 7.05228 16 6.5 16H6C5.44772 16 5 15.5523 5 15ZM8.5 15C8.5 14.4477 8.94772 14 9.5 14H14.5C15.0523 14 15.5 14.4477 15.5 15C15.5 15.5523 15.0523 16 14.5 16H9.5C8.94772 16 8.5 15.5523 8.5 15ZM16.5 15C16.5 14.4477 16.9477 14 17.5 14H18C18.5523 14 19 14.4477 19 15C19 15.5523 18.5523 16 18 16H17.5C16.9477 16 16.5 15.5523 16.5 15Z" fill="#171717"/>
</svg>
