<svg width="24" height="24" viewBox="0 0 24 24" fill="none" xmlns="http://www.w3.org/2000/svg">
<path fill-rule="evenodd" clip-rule="evenodd" d="M3 5C3 2.79086 4.79086 1 7 1H17C19.2091 1 21 2.79086 21 5V22C21 22.3635 20.8027 22.6984 20.4848 22.8746C20.1668 23.0509 19.7783 23.0407 19.47 22.848L13.06 18.8417C12.4115 18.4364 11.5885 18.4364 10.94 18.8417L4.53 22.848C4.22173 23.0407 3.83319 23.0509 3.51523 22.8746C3.19728 22.6984 3 22.3635 3 22V5ZM7 3C5.89543 3 5 3.89543 5 5V20.1958L9.88 17.1457C11.1771 16.3351 12.8229 16.3351 14.12 17.1457L19 20.1958V5C19 3.89543 18.1046 3 17 3H7Z" fill="#171717"/>
</svg>
