<svg width="24" height="24" viewBox="0 0 24 24" fill="none" xmlns="http://www.w3.org/2000/svg">
<path fill-rule="evenodd" clip-rule="evenodd" d="M12 1C12.5523 1 13 1.44772 13 2V3.5C13 4.05228 12.5523 4.5 12 4.5C11.4477 4.5 11 4.05228 11 3.5V2C11 1.44772 11.4477 1 12 1ZM4.22183 4.22183C4.61235 3.8313 5.24551 3.8313 5.63604 4.22183L6.6967 5.28249C7.08722 5.67301 7.08722 6.30617 6.6967 6.6967C6.30617 7.08722 5.67301 7.08722 5.28249 6.6967L4.22183 5.63604C3.8313 5.24551 3.8313 4.61235 4.22183 4.22183ZM19.7782 4.22183C20.1687 4.61235 20.1687 5.24552 19.7782 5.63604L18.7175 6.6967C18.327 7.08722 17.6938 7.08722 17.3033 6.6967C16.9128 6.30617 16.9128 5.67301 17.3033 5.28249L18.364 4.22183C18.7545 3.8313 19.3877 3.8313 19.7782 4.22183ZM6 12C6 8.68629 8.68629 6 12 6C15.3137 6 18 8.68629 18 12C18 15.3137 15.3137 18 12 18C8.68629 18 6 15.3137 6 12ZM12 8C9.79086 8 8 9.79086 8 12C8 14.2091 9.79086 16 12 16C14.2091 16 16 14.2091 16 12C16 9.79086 14.2091 8 12 8ZM1 12C1 11.4477 1.44772 11 2 11H3.5C4.05228 11 4.5 11.4477 4.5 12C4.5 12.5523 4.05228 13 3.5 13H2C1.44772 13 1 12.5523 1 12ZM19.5 12C19.5 11.4477 19.9477 11 20.5 11H22C22.5523 11 23 11.4477 23 12C23 12.5523 22.5523 13 22 13H20.5C19.9477 13 19.5 12.5523 19.5 12ZM6.6967 17.3033C7.08722 17.6938 7.08722 18.327 6.6967 18.7175L5.63604 19.7782C5.24552 20.1687 4.61235 20.1687 4.22183 19.7782C3.8313 19.3877 3.8313 18.7545 4.22183 18.364L5.28249 17.3033C5.67301 16.9128 6.30617 16.9128 6.6967 17.3033ZM17.3033 17.3033C17.6938 16.9128 18.327 16.9128 18.7175 17.3033L19.7782 18.364C20.1687 18.7545 20.1687 19.3876 19.7782 19.7782C19.3876 20.1687 18.7545 20.1687 18.364 19.7782L17.3033 18.7175C16.9128 18.327 16.9128 17.6938 17.3033 17.3033ZM12 19.5C12.5523 19.5 13 19.9477 13 20.5V22C13 22.5523 12.5523 23 12 23C11.4477 23 11 22.5523 11 22V20.5C11 19.9477 11.4477 19.5 12 19.5Z" fill="#171717"/>
</svg>
