<svg width="24" height="24" viewBox="0 0 24 24" fill="none" xmlns="http://www.w3.org/2000/svg">
<path fill-rule="evenodd" clip-rule="evenodd" d="M14.9397 4.66053C13.6757 2.44648 10.3246 2.44649 9.06057 4.66054L2.40725 16.3143C1.13571 18.5415 2.94743 21 5.34681 21H18.6535C21.0528 21 22.8646 18.5415 21.593 16.3143L14.9397 4.66053ZM10.7974 5.65214C11.2939 4.78262 12.7064 4.78262 13.2028 5.65214L19.8561 17.3059C20.2372 17.9733 19.786 19 18.6535 19H5.34681C4.21424 19 3.7631 17.9733 4.14412 17.3059L10.7974 5.65214ZM13.0001 8.5C13.0001 7.94772 12.5524 7.5 12.0001 7.5C11.4478 7.5 11.0001 7.94772 11.0001 8.5V13.5C11.0001 14.0523 11.4478 14.5 12.0001 14.5C12.5524 14.5 13.0001 14.0523 13.0001 13.5V8.5ZM12.0001 17.5C12.5524 17.5 13.0001 17.0523 13.0001 16.5C13.0001 15.9477 12.5524 15.5 12.0001 15.5C11.4478 15.5 11.0001 15.9477 11.0001 16.5C11.0001 17.0523 11.4478 17.5 12.0001 17.5Z" fill="black"/>
</svg>
