<svg width="24" height="24" viewBox="0 0 24 24" fill="none" xmlns="http://www.w3.org/2000/svg">
<path fill-rule="evenodd" clip-rule="evenodd" d="M12 3.00024C11.8418 3.00024 11.6776 3.05358 11.5328 3.17223C10.4929 4.02452 8.8342 5.62965 7.4446 7.60338C6.04333 9.59367 5 11.8394 5 14.0001C5 17.866 8.134 21 12 21C15.866 21 19 17.866 19 14.0001C19 11.8394 17.9567 9.59367 16.5554 7.60338C15.1658 5.62965 13.5071 4.02452 12.4672 3.17223C12.3224 3.05358 12.1582 3.00024 12 3.00024ZM10.265 1.62541C10.7686 1.21263 11.3813 1.00024 12 1.00024C12.6187 1.00024 13.2314 1.21263 13.735 1.62541C14.8886 2.57087 16.6793 4.30517 18.1908 6.45202C19.6906 8.58231 21 11.2384 21 14.0001C21 18.9706 16.9706 23 12 23C7.02944 23 3 18.9706 3 14.0001C3 11.2384 4.30942 8.58231 5.80925 6.45202C7.32074 4.30517 9.11144 2.57088 10.265 1.62541ZM7.42857 13C7.98086 13 8.42857 13.4477 8.42857 14C8.42857 15.9724 10.0276 17.5714 12 17.5714C12.5523 17.5714 13 18.0191 13 18.5714C13 19.1237 12.5523 19.5714 12 19.5714C8.92299 19.5714 6.42857 17.077 6.42857 14C6.42857 13.4477 6.87629 13 7.42857 13Z" fill="#171717"/>
</svg>
