<svg width="24" height="24" viewBox="0 0 24 24" fill="none" xmlns="http://www.w3.org/2000/svg">
<path fillRule="evenodd" clipRule="evenodd" d="M7 3C5.89543 3 5 3.89543 5 5V19C5 20.1046 5.89543 21 7 21H17C18.1046 21 19 20.1046 19 19V12H15C12.7909 12 11 10.2091 11 8V3H7ZM13 4.6302V8C13 9.10457 13.8954 10 15 10H17.7732L13 4.6302ZM13.3441 2.00691C13.0891 1.72005 12.7845 1.4881 12.449 1.31949C12.0356 1.11172 11.575 1 11.1019 1H7C4.79086 1 3 2.79086 3 5V19C3 21.2091 4.79086 23 7 23H17C19.2091 23 21 21.2091 21 19V11.7604C21 11.3659 20.9223 10.9787 20.7747 10.6198C20.6475 10.3102 20.4683 10.0216 20.2422 9.76731L13.3441 2.00691Z" fill="#171717"/>
</svg>
