<svg width="24" height="24" viewBox="0 0 24 24" fill="none" xmlns="http://www.w3.org/2000/svg">
<path fill-rule="evenodd" clip-rule="evenodd" d="M15.9497 6.05025C13.2161 3.31658 8.78392 3.31658 6.05025 6.05025C3.31658 8.78392 3.31658 13.2161 6.05025 15.9497C8.78392 18.6834 13.2161 18.6834 15.9497 15.9497C18.6834 13.2161 18.6834 8.78392 15.9497 6.05025ZM4.63604 4.63604C8.15076 1.12132 13.8492 1.12132 17.364 4.63604C20.6397 7.91175 20.8624 13.0843 18.0322 16.618L21.7071 20.2929C22.0976 20.6834 22.0976 21.3166 21.7071 21.7071C21.3166 22.0976 20.6834 22.0976 20.2929 21.7071L16.618 18.0322C13.0843 20.8624 7.91175 20.6397 4.63604 17.364C1.12132 13.8492 1.12132 8.15076 4.63604 4.63604Z" fill="#171717"/>
</svg>
