<svg width="24" height="24" viewBox="0 0 24 24" fill="none" xmlns="http://www.w3.org/2000/svg">
<path fillRule="evenodd" clipRule="evenodd" d="M10.3151 7.28286L10.766 7.13303C13.3614 6.57117 16.2631 7.78438 18.4193 11.2226C18.7174 11.6979 18.7175 12.3021 18.4197 12.7769C18.1952 13.1349 17.9623 13.4689 17.7223 13.7793L17.346 14.2244L18.8734 15.5156L19.2634 15.0541C19.2725 15.0435 19.2812 15.0326 19.2898 15.0216C19.5766 14.652 19.8518 14.2578 20.1141 13.8394C20.8196 12.7143 20.819 11.2846 20.1137 10.16C17.6185 6.18115 13.9228 4.37252 10.2802 5.19212C10.2479 5.19941 10.2159 5.20829 10.1844 5.21875L9.68442 5.3849L10.3151 7.28286ZM5.57991 11.223C6.46694 9.80845 7.48501 8.77049 8.54562 8.07953L7.4539 6.40377C6.11596 7.27541 4.90322 8.53751 3.88549 10.1605C3.17969 11.286 3.18143 12.7171 3.8866 13.8413C5.5443 16.4841 7.72543 18.1744 10.1044 18.7663C12.4975 19.3616 14.9691 18.8131 17.1016 17.2061L15.8979 15.6089C14.2039 16.8855 12.3446 17.2626 10.5873 16.8254C8.81592 16.3848 7.0273 15.0845 5.58087 12.7786C5.2825 12.3029 5.28239 11.6974 5.57991 11.223ZM10.569 10.6025C10.6005 10.5703 10.6331 10.5391 10.6667 10.5091L9.6142 9.33313L9.59303 9.305C9.59224 9.3056 9.59144 9.30621 9.59064 9.30682L9.33285 9.01878C8.51611 9.74978 7.99976 10.8153 7.99976 12C7.99976 14.2092 9.79062 16 11.9998 16C13.109 16 14.1143 15.5472 14.8378 14.8189L13.4188 13.4094C13.0554 13.7753 12.5547 14 11.9998 14C10.8952 14 9.99976 13.1046 9.99976 12C9.99976 11.9716 10.0003 11.9434 10.0015 11.9153C10.1574 11.9702 10.3251 12 10.4998 12C10.836 12 11.1463 11.8894 11.3964 11.7026L10.569 10.6025Z" fill="#171717"/>
<path fillRule="evenodd" clipRule="evenodd" d="M2.29289 2.29289C2.68342 1.90237 3.31658 1.90237 3.70711 2.29289L21.7071 20.2929C22.0976 20.6834 22.0976 21.3166 21.7071 21.7071C21.3166 22.0976 20.6834 22.0976 20.2929 21.7071L2.29289 3.70711C1.90237 3.31658 1.90237 2.68342 2.29289 2.29289Z" fill="#171717"/>
</svg>
