<svg width="24" height="24" viewBox="0 0 24 24" fill="none" xmlns="http://www.w3.org/2000/svg">
<path fillRule="evenodd" clipRule="evenodd" d="M12 3C8.94246 3 6.24066 4.52375 4.6126 6.85781C4.00495 7.72896 3.54793 8.71186 3.2784 9.7691C3.24221 9.91104 3.2094 10.0543 3.18005 10.1989C3.06209 10.78 3 11.3823 3 12C3 12.3045 3.01508 12.6051 3.04448 12.9012C3.15411 14.0053 3.46316 15.0502 3.93527 16H7.10022C7.1165 15.9199 7.13469 15.8405 7.15475 15.7618C7.30494 15.1727 7.55944 14.6258 7.89678 14.1422C8.79861 12.8493 10.3 12 12 12C12.3458 12 12.684 12.0352 13.011 12.1025L14.0809 9.60608C14.2984 9.09845 14.8863 8.8633 15.3939 9.08085C15.9015 9.29841 16.1367 9.88629 15.9191 10.3939L14.8491 12.8907C15.338 13.2302 15.7631 13.6545 16.1032 14.1422C16.4406 14.6258 16.6951 15.1727 16.8453 15.7618C16.8653 15.8405 16.8835 15.9199 16.8998 16H20.0647C20.5368 15.0502 20.8459 14.0053 20.9555 12.9012C20.9849 12.6051 21 12.3045 21 12C21 11.3823 20.9379 10.78 20.82 10.1989C20.7906 10.0544 20.7578 9.91104 20.7216 9.7691C20.4521 8.71186 19.9951 7.72896 19.3874 6.85781C17.7593 4.52375 15.0575 3 12 3ZM18.7084 18H5.2916C6.65667 19.5251 8.53312 20.5811 10.6487 20.8994C11.089 20.9656 11.5401 21 12 21C12.4599 21 12.911 20.9656 13.3512 20.8994C15.4669 20.5811 17.3433 19.5251 18.7084 18ZM14.8296 16C14.7394 15.7448 14.6155 15.5052 14.4628 15.2864C14.1432 14.8281 13.6993 14.4635 13.1817 14.2414C12.8204 14.0864 12.4216 14 12 14C10.9814 14 10.081 14.5067 9.53715 15.2864C9.38454 15.5052 9.26061 15.7448 9.17042 16H14.8296ZM2.97223 5.71362C4.9583 2.8663 8.26112 1 12 1C15.7389 1 19.0417 2.8663 21.0278 5.71362C21.7701 6.77787 22.3295 7.98031 22.6596 9.27503C22.7039 9.44877 22.7441 9.62416 22.78 9.80107C22.9244 10.5124 23 11.2479 23 12C23 12.3705 22.9816 12.7371 22.9457 13.0988C22.7878 14.6899 22.2906 16.1821 21.5278 17.5007C19.889 20.3337 17.0213 22.3698 13.6487 22.8771C13.1104 22.9581 12.5598 23 12 23C11.4402 23 10.8896 22.9581 10.3513 22.8771C6.97873 22.3698 4.11098 20.3337 2.47222 17.5007C1.70943 16.1821 1.21225 14.6899 1.05427 13.0988C1.01836 12.7371 1 12.3705 1 12C1 11.2479 1.07563 10.5124 1.22002 9.80107C1.25593 9.62416 1.29609 9.44877 1.34039 9.27503C1.67046 7.98031 2.22989 6.77787 2.97223 5.71362ZM12 4C12.5523 4 13 4.44772 13 5V5.5C13 6.05228 12.5523 6.5 12 6.5C11.4478 6.5 11 6.05228 11 5.5V5C11 4.44772 11.4478 4 12 4ZM6.34319 6.34315C6.73371 5.95262 7.36688 5.95262 7.7574 6.34315L8.11095 6.6967C8.50148 7.08722 8.50148 7.72039 8.11095 8.11091C7.72043 8.50144 7.08726 8.50144 6.69674 8.11091L6.34319 7.75736C5.95266 7.36684 5.95266 6.73367 6.34319 6.34315ZM17.6569 6.34315C18.0474 6.73367 18.0474 7.36684 17.6569 7.75736L17.3033 8.11091C16.9128 8.50144 16.2796 8.50144 15.8891 8.11091C15.4986 7.72039 15.4986 7.08722 15.8891 6.6967L16.2427 6.34315C16.6332 5.95262 17.2664 5.95262 17.6569 6.34315ZM4 12C4 11.4478 4.44772 11 5 11H5.5C6.05228 11 6.5 11.4478 6.5 12C6.5 12.5523 6.05228 13 5.5 13H5C4.44772 13 4 12.5523 4 12ZM17.5 12C17.5 11.4478 17.9477 11 18.5 11H19C19.5523 11 20 11.4478 20 12C20 12.5523 19.5523 13 19 13H18.5C17.9477 13 17.5 12.5523 17.5 12Z" fill="#171717"/>
</svg>
