<svg width="24" height="24" viewBox="0 0 24 24" fill="none" xmlns="http://www.w3.org/2000/svg">
<path fillRule="evenodd" clipRule="evenodd" d="M2.05246 11.4737C2.05246 5.68923 6.74169 1 12.5261 1C18.3106 1 22.9998 5.68923 22.9998 11.4737C22.9998 17.2581 18.3106 21.9474 12.5261 21.9474C11.1313 21.9474 9.79772 21.6742 8.57793 21.1774C8.25118 21.0443 7.94206 21.0328 7.69767 21.116L4.24652 22.2913C2.67508 22.8264 1.17339 21.3247 1.70855 19.7533L2.88385 16.3022C2.96707 16.0578 2.9555 15.7486 2.82243 15.4219C2.32567 14.2021 2.05246 12.8686 2.05246 11.4737ZM12.5261 3C7.84626 3 4.05246 6.7938 4.05246 11.4737C4.05246 12.6055 4.27383 13.6832 4.67472 14.6676C4.95222 15.349 5.04477 16.1608 4.77708 16.9469L3.60177 20.3981L7.05293 19.2228C7.83898 18.9551 8.65087 19.0476 9.33227 19.3251C10.3166 19.726 11.3943 19.9474 12.5261 19.9474C17.206 19.9474 20.9998 16.1536 20.9998 11.4737C20.9998 6.7938 17.206 3 12.5261 3Z" fill="#171717"/>
</svg>
