<svg width="24" height="24" viewBox="0 0 24 24" fill="none" xmlns="http://www.w3.org/2000/svg">
<path fill-rule="evenodd" clip-rule="evenodd" d="M2 12C2 5.95425 6.75955 1 12.6954 1C13.6751 1 14.6255 1.13575 15.529 1.39045C15.9542 1.5103 16.2503 1.89491 16.2575 2.33658C16.2648 2.77824 15.9814 3.17233 15.5603 3.30603C12.812 4.17881 10.7868 6.83301 10.7868 10C10.7868 13.8954 13.8406 17 17.5431 17C18.6215 17 19.6391 16.7389 20.5426 16.2742C20.9381 16.0708 21.4204 16.153 21.7262 16.476C22.032 16.799 22.0877 17.2851 21.8629 17.6689C19.9984 20.8521 16.5977 23 12.6954 23C6.75955 23 2 18.0457 2 12ZM12.005 3.02806C7.54961 3.39163 4 7.24333 4 12C4 16.9999 7.92199 21 12.6954 21C14.7745 21 16.6891 20.244 18.1902 18.9757C17.9765 18.9918 17.7607 19 17.5431 19C12.6782 19 8.78677 14.9412 8.78677 10C8.78677 7.19665 10.0361 4.6822 12.005 3.02806Z" fill="#171717"/>
</svg>
