<svg width="24" height="24" viewBox="0 0 24 24" fill="none" xmlns="http://www.w3.org/2000/svg">
<path fill-rule="evenodd" clip-rule="evenodd" d="M16 8C15.4477 8 15 7.55228 15 7C15 6.44772 15.4477 6 16 6H22C22.5523 6 23 6.44772 23 7V13C23 13.5523 22.5523 14 22 14C21.4477 14 21 13.5523 21 13V9.41421L15.8665 14.5477C14.8553 15.5589 13.2709 15.7158 12.0811 14.9226L8.80954 12.7415C8.41291 12.4771 7.88479 12.5294 7.54773 12.8665L2.70711 17.7071C2.31658 18.0976 1.68342 18.0976 1.29289 17.7071C0.902369 17.3166 0.902369 16.6834 1.29289 16.2929L6.13352 11.4523C7.14471 10.4411 8.72907 10.2842 9.91894 11.0774L13.1905 13.2585C13.5871 13.5229 14.1152 13.4706 14.4523 13.1335L19.5858 8H16Z" fill="#171717"/>
</svg>
